<?xml version="1.0" encoding="UTF-8"?><svg id="a" xmlns="http://www.w3.org/2000/svg" viewBox="0 0 1190.55 841.89"><defs><style>.b{fill:#002a39;}</style></defs><g><path class="b" d="M472.29,627.08l-.04-41.63h9.16l.04,41.63h-9.16Z"/><path class="b" d="M548.19,627.01l-.03-27.18-11.7,17.79h-.24l-11.61-17.6,.02,27h-8.98l-.04-41.63h9.87l10.96,17.59,10.93-17.62h9.87l.04,41.63h-9.1Z"/><path class="b" d="M623.62,626.94l-.03-27.18-11.7,17.79h-.24l-11.61-17.6,.02,27h-8.98l-.04-41.63h9.87l10.96,17.59,10.93-17.62h9.87l.04,41.63h-9.1Z"/><path class="b" d="M686.73,627.59c-12.85,.01-22.08-9.56-22.09-21.39v-.12c-.01-11.84,9.32-21.54,22.17-21.55,12.85-.01,22.08,9.56,22.09,21.39v.12c.01,11.84-9.32,21.54-22.17,21.55Zm12.59-21.54c0-7.14-5.25-13.08-12.62-13.07-7.38,0-12.48,5.84-12.48,12.98v.12c0,7.14,5.25,13.08,12.62,13.07s12.49-5.84,12.48-12.98v-.12Z"/></g><polygon class="b" points="390.11 358.14 360.62 358.12 360.53 509.62 457.54 509.68 457.56 481.47 390.03 481.43 390.11 358.14"/><path class="b" d="M570.53,453.97c-.01,19.87-10.92,30.34-28.87,30.32-17.52-.01-28.63-10.49-28.61-30.36l.06-95.73-29.49-.02-.06,97.87c-.02,37.18,25.82,57.07,58.09,57.09,32.48,.02,58.35-19.84,58.37-57.02l.06-97.86-29.49-.02-.06,95.73Z"/><path class="b" d="M751.1,404.93c.02-26.28-18.78-46.59-48.26-46.61l-59.19-.04-.09,151.5,29.7,.02,.04-58.33h15.39l29.66,58.36,32.91,.02-32.44-61.99c19.88-5.76,32.28-21.78,32.29-42.93Zm-53.86,21.12h-23.93l.03-42.11h23.93c14.96,.02,23.71,8.36,23.71,21.18,0,12.39-8.77,20.93-23.73,20.93Z"/><rect class="b" x="787.61" y="358.38" width="29.91" height="151.5"/><path class="b" d="M924.35,421.7l-21.15-4.07c-11.11-2.14-16.45-8.77-16.44-17.1,0-10.04,9.41-19.23,23.73-19.22,19.23,.01,26.06,13.05,27.55,21.39l26.5-8.1c-3.41-17.1-17.5-39.33-54.25-39.35-28.63-.02-52.79,20.48-52.81,47.4-.01,22.86,15.58,38.47,39.72,43.4l21.15,4.29c11.75,2.36,18.37,9.2,18.37,17.96,0,10.68-8.77,18.58-24.59,18.57-21.37-.01-31.83-13.48-33.1-28.44l-27.36,7.25c2.34,21.58,20.06,47.45,60.23,47.47,35.26,.02,54.72-23.47,54.73-46.76,.01-21.37-14.72-39.33-42.28-44.68Z"/><path class="b" d="M281.43,358.08l-56.63-.04-.04,54.67,29.7,.02,.02-29.03h23.29c14.75,.02,23.71,8.36,23.7,21.82,0,13.04-8.99,21.58-23.73,21.57l-23.29-.03-29.7-.02-48.84,.07-.02,25.05,48.84,.04-.04,57.35,29.49,.02,.04-57.05,27.14,.02c29.91,.02,49.8-19.63,49.81-47.19,.02-27.35-19.84-47.24-49.76-47.25Z"/><polygon class="b" points="954.14 319.01 589.01 273.01 224.14 319.01 224.14 291.01 589.06 245.01 954.14 291.01 954.14 319.01"/></svg>