<svg id="Layer_1" data-name="Layer 1" xmlns="http://www.w3.org/2000/svg" xmlns:xlink="http://www.w3.org/1999/xlink" viewBox="0 0 1282.62 3862.52"><defs><style>.cls-1{fill:none;}.cls-2{clip-path:url(#clip-path);}.cls-3{clip-path:url(#clip-path-3);}.cls-4{fill:#002b3c;}</style><clipPath id="clip-path"><rect class="cls-1" x="9" y="7" width="458.73" height="447.62"/></clipPath><clipPath id="clip-path-3"><rect class="cls-1" width="476.73" height="455.62"/></clipPath></defs><g class="cls-2"><g class="cls-2"><g class="cls-3"><path class="cls-4" d="M320.74,7.1,153.45,7l-.11,161.5,87.74.07.07-85.76,68.81,0c43.56,0,70.05,24.66,70,64.43,0,38.51-26.55,63.75-70.11,63.72l-68.81-.08-87.74-.08-144.28.21L9,285l144.28.11-.11,169.42,87.12.05.1-168.54,80.17.05c88.38.05,147.12-58,147.17-139.43,0-80.8-58.62-139.54-147-139.6"/></g></g></g></svg>